<?xml version="1.0" encoding="UTF-8" standalone="no"?>
<!-- Created with Inkscape (http://www.inkscape.org/) -->

<svg
   xmlns:dc="http://purl.org/dc/elements/1.1/"
   xmlns:cc="http://creativecommons.org/ns#"
   xmlns:rdf="http://www.w3.org/1999/02/22-rdf-syntax-ns#"
   xmlns:svg="http://www.w3.org/2000/svg"
   xmlns="http://www.w3.org/2000/svg"
   xmlns:sodipodi="http://sodipodi.sourceforge.net/DTD/sodipodi-0.dtd"
   xmlns:inkscape="http://www.inkscape.org/namespaces/inkscape"
   id="svg3408"
   version="1.1"
   inkscape:version="0.91 r13725"
   width="550"
   height="712"
   viewBox="0 0 550 712"
   sodipodi:docname="hand.svg">
  <metadata
     id="metadata3414">
    <rdf:RDF>
      <cc:Work
         rdf:about="">
        <dc:format>image/svg+xml</dc:format>
        <dc:type
           rdf:resource="http://purl.org/dc/dcmitype/StillImage" />
        <dc:title />
      </cc:Work>
    </rdf:RDF>
  </metadata>
  <defs
     id="defs3412" />
  <sodipodi:namedview
     pagecolor="#ffffff"
     bordercolor="#666666"
     borderopacity="1"
     objecttolerance="10"
     gridtolerance="10"
     guidetolerance="10"
     inkscape:pageopacity="0"
     inkscape:pageshadow="2"
     inkscape:window-width="1203"
     inkscape:window-height="663"
     id="namedview3410"
     showgrid="false"
     inkscape:zoom="1.0834917"
     inkscape:cx="290.56197"
     inkscape:cy="336.36578"
     inkscape:window-x="20"
     inkscape:window-y="42"
     inkscape:window-maximized="0"
     inkscape:current-layer="svg3408" />
  <path
     style="fill:none;stroke:#000000;stroke-width:0.78400767;stroke-opacity:1"
     d="M 218.84766 156.19727 C 214.38401 156.09643 209.88635 158.58679 207.60938 163.30469 C 205.44558 167.78808 204.22535 180.06794 202.61328 213.62305 C 201.51153 236.55622 198.68819 278.77919 197.89648 284.14648 C 197.51061 286.76243 196.3206 288.80859 195.1875 288.80859 C 193.97857 288.80859 192.39941 285.8622 191.71094 282.32031 C 190.08595 273.96038 183.29132 217.77951 182.04102 202.37109 C 180.66083 185.36185 180.05713 182.04539 177.70703 178.49414 C 175.80258 175.61633 173.11032 174.48755 168.80469 174.76172 C 164.45346 175.03878 161.44447 176.9847 159.20508 180.9707 C 156.44722 185.87955 155.76366 189.77674 155.78906 200.45117 C 155.81496 211.31479 156.30875 217.40784 159.05469 240.78906 C 161.84882 264.58061 162.41164 271.76587 162.50586 284.78516 C 162.58676 295.96892 162.038 302.61569 160.84766 304.83984 C 160.3709 305.73069 160.14732 305.7819 159.4082 305.17188 C 156.9683 303.15814 155.2984 296.6074 151.31445 273.44336 C 149.62728 263.63346 147.49345 252.53499 146.57422 248.7832 C 142.80623 233.40432 138.04973 225.8216 130.85156 223.71484 C 126.074 222.31654 122.15333 223.78246 120.27148 227.66992 C 117.82334 232.72709 118.19962 239.15094 122.50586 265.75977 C 126.29384 289.16623 128.83004 309.62874 129.88672 325.30469 C 133.04863 372.21125 140.02527 406.3525 150.83594 427.82031 C 158.74783 443.53172 171.89924 454.55119 185.60547 456.95898 C 186.41614 457.10139 187.34038 457.16714 188.375 457.1582 L 188.375 463.72852 L 206.73242 463.72852 L 206.73242 540.63867 L 208.15234 540.63867 L 208.15234 541.36328 L 226.49805 541.36328 L 226.49805 540.63867 L 227.04297 540.63867 L 227.04297 463.72852 L 246.26172 463.72852 L 246.26172 449.68359 C 250.27421 449.49391 252.15675 449.18825 254.48047 448.57617 C 263.79358 446.12302 270.93763 441.47824 284.9375 428.7793 C 289.31421 424.80929 297.83424 417.29052 303.87109 412.06836 C 318.9811 398.99758 320.43073 397.36688 327.69141 385.25195 C 338.45321 367.29508 351.00812 356.65813 372.5332 347.25977 C 376.93895 345.33612 381.48472 343.10885 382.63672 342.31055 C 391.27436 336.32463 389.06012 324.48037 378.70703 321.29688 C 368.52137 318.1649 353.29399 319.92778 341.92969 325.55664 C 337.33759 327.83116 330.85444 332.02721 320.33789 339.52734 C 308.76626 347.77995 301.30416 351.04137 293.99414 351.05078 C 288.73182 351.05678 285.93138 350.30709 282.38281 347.93555 C 275.61345 343.41152 272.86143 334.89481 271.81055 315.20312 C 271.14673 302.76414 271.58853 297.44036 275.58203 269.65234 C 282.75525 219.739 284.81167 191.84917 281.99219 182.69922 C 280.1063 176.57903 276.48959 173.56055 271.04688 173.56055 C 268.65566 173.56055 267.66984 173.86523 265.89844 175.14844 C 263.08723 177.18486 261.68005 178.99471 259.71094 183.12305 C 256.42838 190.00517 253.44028 200.95144 249.87891 219.11328 C 246.14512 238.15432 241.72277 262.8189 240.26172 272.75391 C 238.84783 282.36813 238.01766 285.03785 236.125 286.05078 C 234.04721 287.16277 232.79242 286.72411 231.8457 284.55664 C 230.62541 281.7629 230.7391 267.3874 232.20312 238.86914 C 233.82814 207.21498 234.11077 194.3215 233.39844 184.43555 C 232.36633 170.1116 230.89648 164.31192 227.24023 160.1582 C 224.94266 157.54803 221.90174 156.26628 218.84766 156.19727 z "
     id="path4232" />
</svg>
