<?xml version="1.0" encoding="UTF-8" standalone="no"?>
<!-- Created with Inkscape (http://www.inkscape.org/) -->

<svg
   xmlns:dc="http://purl.org/dc/elements/1.1/"
   xmlns:cc="http://creativecommons.org/ns#"
   xmlns:rdf="http://www.w3.org/1999/02/22-rdf-syntax-ns#"
   xmlns:svg="http://www.w3.org/2000/svg"
   xmlns="http://www.w3.org/2000/svg"
   xmlns:sodipodi="http://sodipodi.sourceforge.net/DTD/sodipodi-0.dtd"
   xmlns:inkscape="http://www.inkscape.org/namespaces/inkscape"
   id="svg3408"
   version="1.1"
   inkscape:version="0.91 r13725"
   width="550"
   height="712"
   viewBox="0 0 550 712"
   sodipodi:docname="hand.svg">
  <metadata
     id="metadata3414">
    <rdf:RDF>
      <cc:Work
         rdf:about="">
        <dc:format>image/svg+xml</dc:format>
        <dc:type
           rdf:resource="http://purl.org/dc/dcmitype/StillImage" />
        <dc:title />
      </cc:Work>
    </rdf:RDF>
  </metadata>
  <defs
     id="defs3412" />
  <sodipodi:namedview
     pagecolor="#ffffff"
     bordercolor="#666666"
     borderopacity="1"
     objecttolerance="10"
     gridtolerance="10"
     guidetolerance="10"
     inkscape:pageopacity="0"
     inkscape:pageshadow="2"
     inkscape:window-width="1203"
     inkscape:window-height="663"
     id="namedview3410"
     showgrid="false"
     inkscape:zoom="1.0834917"
     inkscape:cx="290.56197"
     inkscape:cy="336.36578"
     inkscape:window-x="20"
     inkscape:window-y="42"
     inkscape:window-maximized="0"
     inkscape:current-layer="svg3408" />
  <path
     style="fill:none;stroke:#000000;stroke-width:0.61732668;stroke-opacity:1"
     d="M 197.48633 238.16797 C 193.97166 238.08857 190.42962 240.0488 188.63672 243.76367 C 186.93295 247.29388 185.97246 256.96352 184.70312 283.38477 C 183.8356 301.44232 181.61167 334.68786 180.98828 338.91406 C 180.68445 340.97385 179.74767 342.58594 178.85547 342.58594 C 177.90356 342.58594 176.66124 340.26544 176.11914 337.47656 C 174.83963 330.89396 169.48839 286.65796 168.50391 274.52539 C 167.41715 261.13234 166.94227 258.52086 165.0918 255.72461 C 163.59224 253.45862 161.47228 252.56928 158.08203 252.78516 C 154.65588 253.00332 152.28673 254.53526 150.52344 257.67383 C 148.3519 261.53905 147.81398 264.60864 147.83398 273.01367 C 147.85438 281.56767 148.24215 286.36505 150.4043 304.77539 C 152.60439 323.50883 153.04886 329.1666 153.12305 339.41797 C 153.18675 348.22405 152.75368 353.45769 151.81641 355.20898 C 151.44101 355.91044 151.26557 355.95104 150.68359 355.4707 C 148.76241 353.88509 147.4475 348.72567 144.31055 330.48633 C 142.98207 322.76203 141.30192 314.02446 140.57812 311.07031 C 137.61121 298.961 133.8651 292.98894 128.19727 291.33008 C 124.43543 290.22906 121.34896 291.38435 119.86719 294.44531 C 117.93953 298.42732 118.23622 303.48574 121.62695 324.4375 C 124.6096 342.86772 126.60547 358.97905 127.4375 371.32227 C 129.92718 408.25644 135.42128 435.13924 143.93359 452.04297 C 150.1634 464.41411 160.51828 473.09044 171.31055 474.98633 C 171.94887 475.09846 172.67753 475.15157 173.49219 475.14453 L 173.49219 491.41602 L 184.88867 491.41602 L 184.88867 540.87695 L 189.06445 540.87695 L 189.06445 541.44727 L 203.50977 541.44727 L 203.50977 540.87695 L 207.66211 540.87695 L 207.66211 491.41602 L 219.07227 491.41602 L 219.07227 469.25781 C 222.2317 469.10846 223.71328 468.86867 225.54297 468.38672 C 232.8761 466.45511 238.50191 462.79796 249.52539 452.79883 C 252.97161 449.67285 259.68018 443.75254 264.43359 439.64062 C 276.33119 429.3487 277.4724 428.06467 283.18945 418.52539 C 291.66328 404.38617 301.54923 396.00963 318.49805 388.60938 C 321.96713 387.0947 325.54604 385.34147 326.45312 384.71289 C 333.25439 379.99958 331.51139 370.6727 323.35938 368.16602 C 315.3392 365.6999 303.34862 367.08932 294.40039 371.52148 C 290.78457 373.31243 285.67916 376.61588 277.39844 382.52148 C 268.28695 389.01957 262.41215 391.58829 256.65625 391.5957 C 252.5127 391.6007 250.30781 391.00993 247.51367 389.14258 C 242.18349 385.58036 240.01691 378.87435 239.18945 363.36914 C 238.66676 353.57471 239.01372 349.3822 242.1582 327.50195 C 247.80638 288.20025 249.42514 266.23982 247.20508 259.03516 C 245.72014 254.21613 242.87347 251.83984 238.58789 251.83984 C 236.70505 251.83984 235.928 252.07944 234.5332 253.08984 C 232.31966 254.69331 231.21258 256.11849 229.66211 259.36914 C 227.07742 264.78811 224.72414 273.40642 221.91992 287.70703 C 218.97994 302.69992 215.49809 322.12054 214.34766 329.94336 C 213.23436 337.51358 212.58012 339.61648 211.08984 340.41406 C 209.45379 341.28964 208.46614 340.94494 207.7207 339.23828 C 206.75984 337.03849 206.84918 325.71892 208.00195 303.26367 C 209.28148 278.33923 209.50425 268.18652 208.94336 260.40234 C 208.13068 249.12368 206.97268 244.55774 204.09375 241.28711 C 202.28465 239.23186 199.89111 238.22231 197.48633 238.16797 z "
     id="path4232" />
</svg>
